<svg width="80" height="80" viewBox="0 0 80 80" fill="none" xmlns="http://www.w3.org/2000/svg">
<g id="2 1" clip-path="url(#clip0_114_164)">
<g id="Clip path group">
<mask id="mask0_114_164" style="mask-type:luminance" maskUnits="userSpaceOnUse" x="0" y="0" width="80" height="80">
<g id="0ce731caa8">
<path id="Vector" d="M16 0H64C72.8367 0 80 7.16333 80 16V64C80 72.8367 72.8367 80 64 80H16C7.16333 80 0 72.8367 0 64V16C0 7.16333 7.16333 0 16 0Z" fill="white"/>
</g>
</mask>
<g mask="url(#mask0_114_164)">
<g id="Group">
<path id="Vector_2" d="M0 0H79.875V79.875H0V0Z" fill="#007EC5"/>
</g>
</g>
</g>
<g id="Clip path group_2">
<mask id="mask1_114_164" style="mask-type:luminance" maskUnits="userSpaceOnUse" x="15" y="10" width="50" height="54">
<g id="9ec636685d">
<path id="Vector_3" d="M15.3267 10.8083H64.6067V63.7684H15.3267V10.8083Z" fill="white"/>
</g>
</mask>
<g mask="url(#mask1_114_164)">
<g id="Group_2">
<path id="Vector_4" d="M55.8067 31.9958H48.7667V19.6466C48.7667 14.7825 44.8192 10.8258 39.9667 10.8258C39.1817 10.8258 38.49 11.3483 38.275 12.1066L34.88 24.0166L26.9183 31.9958H17.0867C16.115 31.9958 15.3267 32.7841 15.3267 33.76V61.9866C15.3267 62.9616 16.115 63.7508 17.0867 63.7508H56.345C58.9375 63.7508 61.1275 61.8908 61.5533 59.3275L64.5833 41.1058C64.6 41.0108 64.6067 40.9133 64.6067 40.8166C64.6067 35.9525 60.6592 31.9958 55.8067 31.9958ZM18.8467 35.5241H25.8867V60.2225H18.8467V35.5241ZM58.0808 58.7491C57.9383 59.6008 57.2075 60.2225 56.345 60.2225H29.4067V34.49L37.6908 26.1866C37.9025 25.975 38.0567 25.7116 38.1383 25.4225L41.2475 14.5108C43.5433 15.0883 45.2467 17.1716 45.2467 19.6466V33.76C45.2467 34.735 46.035 35.5241 47.0067 35.5241H55.8067C58.6717 35.5241 61.0125 37.8258 61.085 40.6808L58.0808 58.7491Z" fill="white"/>
</g>
</g>
</g>
</g>
<defs>
<clipPath id="clip0_114_164">
<rect width="80" height="80" fill="white"/>
</clipPath>
</defs>
</svg>
