<svg width="80" height="80" viewBox="0 0 80 80" fill="none" xmlns="http://www.w3.org/2000/svg">
<g id="3 1" clip-path="url(#clip0_114_255)">
<g id="Clip path group">
<mask id="mask0_114_255" style="mask-type:luminance" maskUnits="userSpaceOnUse" x="0" y="0" width="80" height="80">
<g id="2f74be2244">
<path id="Vector" d="M16 0H64C72.8367 0 80 7.16333 80 16V64C80 72.8367 72.8367 80 64 80H16C7.16333 80 0 72.8367 0 64V16C0 7.16333 7.16333 0 16 0Z" fill="white"/>
</g>
</mask>
<g mask="url(#mask0_114_255)">
<g id="Group">
<path id="Vector_2" d="M0 0H79.875V79.875H0V0Z" fill="#007EC5"/>
</g>
</g>
</g>
<path id="Vector_3" d="M51.3958 29.745C51.3958 29.3275 51.375 28.9108 51.3342 28.4958C51.2933 28.0808 51.2325 27.6683 51.1508 27.2592C51.07 26.85 50.9683 26.4458 50.8475 26.0467C50.7267 25.6467 50.5858 25.255 50.4267 24.8692C50.2667 24.4833 50.0892 24.1067 49.8925 23.7392C49.6958 23.3708 49.4817 23.0133 49.25 22.6667C49.0183 22.3192 48.7708 21.985 48.5058 21.6625C48.2417 21.34 47.9625 21.0308 47.6675 20.7358C47.3725 20.4408 47.0642 20.1608 46.7417 19.8958C46.4192 19.6317 46.085 19.3833 45.7383 19.1517C45.3917 18.9192 45.035 18.705 44.6667 18.5083C44.2992 18.3117 43.9233 18.1333 43.5375 17.9742C43.1525 17.8142 42.7608 17.6742 42.3617 17.5525C41.9625 17.4317 41.5592 17.33 41.15 17.2492C40.7408 17.1675 40.3292 17.1067 39.9142 17.0658C39.4992 17.025 39.0833 17.0042 38.6667 17.0042C38.25 17.0042 37.8342 17.025 37.4192 17.0658C37.0042 17.1067 36.5925 17.1675 36.1833 17.2492C35.7742 17.33 35.3708 17.4317 34.9717 17.5525C34.5725 17.6742 34.1808 17.8142 33.7958 17.9742C33.41 18.1333 33.0342 18.3117 32.6667 18.5083C32.2983 18.705 31.9417 18.9192 31.595 19.1517C31.2483 19.3833 30.9142 19.6317 30.5917 19.8958C30.2692 20.1608 29.9608 20.4408 29.6658 20.7358C29.3708 21.0308 29.0917 21.34 28.8275 21.6625C28.5625 21.985 28.315 22.3192 28.0833 22.6667C27.8517 23.0133 27.6375 23.3708 27.4408 23.7392C27.2442 24.1067 27.0667 24.4833 26.9067 24.8692C26.7475 25.255 26.6067 25.6467 26.4858 26.0467C26.365 26.4458 26.2633 26.85 26.1825 27.2592C26.1008 27.6683 26.04 28.0808 25.9992 28.4958C25.9583 28.9108 25.9375 29.3275 25.9375 29.745C25.9375 30.1617 25.9583 30.5783 25.9992 30.9933C26.04 31.4083 26.1008 31.8208 26.1825 32.23C26.2633 32.6392 26.365 33.0433 26.4858 33.4433C26.6067 33.8425 26.7475 34.235 26.9067 34.62C27.0667 35.0058 27.2442 35.3825 27.4408 35.7508C27.6375 36.1183 27.8517 36.4758 28.0833 36.8225C28.315 37.17 28.5625 37.505 28.8275 37.8275C29.0917 38.15 29.3708 38.4583 29.6658 38.7533C29.9608 39.0483 30.2692 39.3283 30.5917 39.5933C30.9142 39.8583 31.2483 40.1058 31.595 40.3383C31.9417 40.57 32.2983 40.7842 32.6667 40.9808C33.0342 41.1775 33.41 41.3558 33.7958 41.515C34.1808 41.675 34.5725 41.8158 34.9717 41.9367C35.3708 42.0575 35.7742 42.1592 36.1833 42.24C36.5925 42.3217 37.0042 42.3833 37.4192 42.4242C37.8342 42.465 38.25 42.485 38.6667 42.485C39.0833 42.485 39.4992 42.4642 39.9142 42.4225C40.3283 42.3817 40.7408 42.32 41.1492 42.2383C41.5583 42.1567 41.9617 42.0558 42.3608 41.9342C42.7592 41.8125 43.1508 41.6725 43.5358 41.5125C43.9208 41.3525 44.2975 41.1742 44.665 40.9775C45.0325 40.7808 45.3892 40.5667 45.7358 40.335C46.0825 40.1025 46.4167 39.855 46.7392 39.59C47.0608 39.325 47.3692 39.0458 47.6642 38.7508C47.9592 38.4558 48.2383 38.1467 48.5033 37.8242C48.7675 37.5017 49.015 37.1675 49.2467 36.82C49.4783 36.4733 49.6925 36.1158 49.8892 35.7483C50.0858 35.3808 50.2642 35.0042 50.4233 34.6183C50.5833 34.2333 50.7242 33.8408 50.845 33.4417C50.9658 33.0425 51.0675 32.6383 51.1492 32.2292C51.2308 31.82 51.2925 31.4083 51.3333 30.9933C51.3742 30.5783 51.395 30.1617 51.3958 29.745ZM38.6667 40.3458C38.32 40.3458 37.9742 40.3283 37.6283 40.295C37.2833 40.2608 36.9408 40.21 36.6 40.1417C36.26 40.0742 35.9242 39.99 35.5925 39.8892C35.26 39.7883 34.9342 39.6717 34.6133 39.5392C34.2933 39.4058 33.98 39.2575 33.6742 39.0942C33.3683 38.93 33.0708 38.7517 32.7825 38.5592C32.4942 38.3658 32.2158 38.16 31.9475 37.9392C31.6792 37.7192 31.4225 37.4858 31.1775 37.2408C30.9325 36.995 30.6992 36.7383 30.4792 36.47C30.2592 36.2017 30.0533 35.9233 29.86 35.6342C29.6675 35.3458 29.4892 35.0483 29.3258 34.7417C29.1625 34.4358 29.0142 34.1225 28.8817 33.8017C28.7492 33.4808 28.6325 33.1542 28.5317 32.8217C28.4308 32.49 28.3467 32.1533 28.2792 31.8125C28.2108 31.4725 28.16 31.1292 28.1267 30.7842C28.0925 30.4383 28.075 30.0917 28.075 29.745C28.075 29.3975 28.0925 29.0508 28.1267 28.7058C28.16 28.36 28.2108 28.0167 28.2792 27.6767C28.3467 27.3358 28.4308 27 28.5317 26.6675C28.6325 26.335 28.7492 26.0083 28.8817 25.6875C29.0142 25.3667 29.1625 25.0533 29.3258 24.7475C29.4892 24.4408 29.6675 24.1433 29.86 23.855C30.0533 23.5667 30.2592 23.2875 30.4792 23.0192C30.6992 22.7508 30.9325 22.4942 31.1775 22.2483C31.4225 22.0033 31.6792 21.77 31.9475 21.55C32.2158 21.33 32.4942 21.1233 32.7825 20.93C33.0708 20.7375 33.3683 20.5592 33.6742 20.395C33.98 20.2317 34.2933 20.0833 34.6133 19.9508C34.9342 19.8175 35.26 19.7008 35.5925 19.6C35.9242 19.4992 36.26 19.415 36.6 19.3475C36.9408 19.28 37.2833 19.2283 37.6283 19.195C37.9733 19.1608 38.32 19.1433 38.6667 19.1433C39.0133 19.1433 39.36 19.1608 39.705 19.195C40.05 19.2283 40.3925 19.28 40.7333 19.3475C41.0733 19.415 41.4092 19.4992 41.7408 19.6C42.0733 19.7008 42.3992 19.8175 42.72 19.9508C43.04 20.0833 43.3533 20.2317 43.6592 20.395C43.965 20.5592 44.2625 20.7375 44.5508 20.93C44.8392 21.1233 45.1175 21.33 45.3858 21.55C45.6542 21.77 45.9108 22.0033 46.1558 22.2483C46.4008 22.4942 46.6342 22.7508 46.8542 23.0192C47.0742 23.2875 47.28 23.5667 47.4733 23.855C47.6658 24.1433 47.8442 24.4408 48.0075 24.7475C48.1708 25.0533 48.3192 25.3667 48.4517 25.6875C48.5842 26.0083 48.7017 26.335 48.8017 26.6675C48.9025 27 48.9867 27.3358 49.0542 27.6767C49.1225 28.0167 49.1733 28.36 49.2067 28.7058C49.2408 29.0508 49.2583 29.3975 49.2583 29.745C49.2575 30.0917 49.24 30.4375 49.205 30.7833C49.1708 31.1283 49.1192 31.4708 49.0508 31.8117C48.9825 32.1517 48.8983 32.4875 48.7975 32.82C48.6958 33.1517 48.5792 33.4775 48.4458 33.7983C48.3133 34.1183 48.165 34.4317 48.0008 34.7375C47.8375 35.0433 47.6592 35.3408 47.4667 35.6292C47.2733 35.9175 47.0675 36.1958 46.8475 36.4642C46.6275 36.7325 46.395 36.9892 46.15 37.2342C45.9042 37.48 45.6483 37.7125 45.38 37.9325C45.1117 38.1533 44.8342 38.36 44.5458 38.5525C44.2575 38.7458 43.9608 38.9242 43.655 39.0875C43.3492 39.2517 43.0367 39.4 42.7167 39.5333C42.3967 39.6658 42.0708 39.7833 41.7392 39.8842C41.4075 39.9858 41.0717 40.07 40.7317 40.1383C40.3917 40.2067 40.0492 40.2583 39.7042 40.2925C39.3592 40.3275 39.0133 40.345 38.6667 40.3458Z" fill="white"/>
<path id="Vector_4" d="M38.6667 20.1708C38.3517 20.1708 38.0375 20.1858 37.7242 20.2166C37.41 20.2474 37.0992 20.2941 36.79 20.3558C36.4808 20.4166 36.1758 20.4933 35.8742 20.5849C35.5733 20.6766 35.2767 20.7824 34.9858 20.9033C34.695 21.0241 34.41 21.1583 34.1325 21.3074C33.8542 21.4558 33.585 21.6183 33.3225 21.7933C33.0608 21.9683 32.8083 22.1558 32.565 22.3558C32.3208 22.5558 32.0883 22.7674 31.865 22.9908C31.6425 23.2133 31.4308 23.4466 31.2317 23.6908C31.0317 23.9341 30.8442 24.1874 30.6692 24.4491C30.4942 24.7116 30.3325 24.9816 30.1833 25.2599C30.035 25.5374 29.9008 25.8224 29.78 26.1141C29.6592 26.4049 29.5533 26.7016 29.4617 27.0033C29.3708 27.3049 29.2942 27.6108 29.2325 27.9199C29.1717 28.2291 29.125 28.5408 29.0942 28.8541C29.0633 29.1683 29.0475 29.4824 29.0475 29.7983C29.0475 30.1133 29.0633 30.4283 29.0942 30.7416C29.125 31.0558 29.1717 31.3674 29.2325 31.6766C29.2942 31.9858 29.3708 32.2908 29.4617 32.5924C29.5533 32.8949 29.6592 33.1908 29.78 33.4824C29.9008 33.7741 30.035 34.0583 30.1833 34.3366C30.3325 34.6149 30.4942 34.8849 30.6692 35.1466C30.8442 35.4091 31.0317 35.6624 31.2317 35.9058C31.4308 36.1491 31.6425 36.3833 31.865 36.6058C32.0883 36.8291 32.3208 37.0399 32.5642 37.2399C32.8083 37.4399 33.0608 37.6283 33.3225 37.8033C33.585 37.9783 33.8542 38.1399 34.1325 38.2891C34.41 38.4374 34.695 38.5724 34.9858 38.6924C35.2767 38.8133 35.5733 38.9199 35.8742 39.0108C36.1758 39.1024 36.4808 39.1791 36.79 39.2408C37.0992 39.3024 37.41 39.3483 37.7242 39.3791C38.0375 39.4099 38.3517 39.4258 38.6667 39.4258C38.9817 39.4258 39.2958 39.4099 39.6092 39.3791C39.9233 39.3483 40.2342 39.3024 40.5433 39.2408C40.8525 39.1791 41.1575 39.1024 41.4592 39.0108C41.76 38.9199 42.0567 38.8133 42.3475 38.6924C42.6383 38.5724 42.9233 38.4374 43.2008 38.2891C43.4792 38.1399 43.7483 37.9783 44.0108 37.8033C44.2725 37.6283 44.525 37.4399 44.7692 37.2399C45.0125 37.0399 45.2458 36.8291 45.4683 36.6058C45.6908 36.3833 45.9025 36.1491 46.1025 35.9058C46.3017 35.6624 46.4892 35.4091 46.6642 35.1466C46.8392 34.8849 47.0008 34.6149 47.15 34.3366C47.2983 34.0583 47.4325 33.7741 47.5533 33.4824C47.6742 33.1908 47.78 32.8949 47.8717 32.5924C47.9625 32.2908 48.0392 31.9858 48.1008 31.6766C48.1625 31.3674 48.2083 31.0558 48.2392 30.7416C48.27 30.4283 48.2858 30.1133 48.2858 29.7983C48.2858 29.4824 48.27 29.1683 48.2392 28.8541C48.2083 28.5408 48.1625 28.2291 48.1008 27.9199C48.0392 27.6108 47.9625 27.3049 47.8717 27.0033C47.78 26.7016 47.6742 26.4049 47.5533 26.1141C47.4325 25.8224 47.2983 25.5374 47.15 25.2599C47.0008 24.9816 46.8392 24.7116 46.6642 24.4491C46.4892 24.1874 46.3017 23.9341 46.1025 23.6908C45.9025 23.4466 45.6908 23.2133 45.4683 22.9908C45.2458 22.7674 45.0125 22.5558 44.7692 22.3558C44.525 22.1558 44.2725 21.9683 44.0108 21.7933C43.7483 21.6183 43.4792 21.4558 43.2008 21.3074C42.9233 21.1583 42.6383 21.0241 42.3475 20.9033C42.0567 20.7824 41.76 20.6766 41.4592 20.5849C41.1575 20.4933 40.8525 20.4166 40.5433 20.3558C40.2342 20.2941 39.9233 20.2474 39.6092 20.2166C39.2958 20.1858 38.9817 20.1708 38.6667 20.1708ZM38.6667 37.1791C38.4217 37.1791 38.1775 37.1674 37.9333 37.1433C37.6892 37.1191 37.4475 37.0833 37.2075 37.0358C36.9667 36.9874 36.7292 36.9283 36.495 36.8566C36.2608 36.7858 36.03 36.7033 35.8033 36.6091C35.5775 36.5158 35.3558 36.4108 35.14 36.2949C34.9242 36.1791 34.7142 36.0533 34.51 35.9174C34.3067 35.7808 34.11 35.6349 33.9208 35.4791C33.7308 35.3241 33.55 35.1591 33.3767 34.9858C33.2033 34.8124 33.0392 34.6308 32.8833 34.4416C32.7283 34.2516 32.5825 34.0549 32.4458 33.8516C32.31 33.6474 32.1842 33.4374 32.0692 33.2208C31.9533 33.0049 31.8483 32.7833 31.755 32.5566C31.6608 32.3299 31.5783 32.0991 31.5075 31.8649C31.4367 31.6299 31.3767 31.3924 31.3292 31.1516C31.2817 30.9116 31.2458 30.6691 31.2217 30.4249C31.1975 30.1808 31.185 29.9366 31.185 29.6908C31.185 29.4458 31.1975 29.2016 31.2217 28.9574C31.2458 28.7133 31.2817 28.4708 31.3292 28.2299C31.3767 27.9899 31.4367 27.7524 31.5075 27.5174C31.5783 27.2824 31.6608 27.0524 31.755 26.8258C31.8483 26.5991 31.9533 26.3774 32.0692 26.1616C32.1842 25.9449 32.31 25.7349 32.4458 25.5308C32.5825 25.3274 32.7283 25.1299 32.8833 24.9408C33.0392 24.7508 33.2033 24.5699 33.3767 24.3966C33.55 24.2224 33.7308 24.0583 33.9208 23.9024C34.11 23.7474 34.3067 23.6016 34.51 23.4649C34.7142 23.3291 34.9242 23.2024 35.14 23.0874C35.3558 22.9716 35.5775 22.8666 35.8033 22.7733C36.03 22.6791 36.2608 22.5966 36.495 22.5258C36.7292 22.4541 36.9667 22.3949 37.2075 22.3466C37.4475 22.2991 37.6892 22.2633 37.9333 22.2391C38.1775 22.2149 38.4217 22.2033 38.6667 22.2033C38.9117 22.2033 39.1558 22.2149 39.4 22.2391C39.6442 22.2633 39.8858 22.2991 40.1258 22.3466C40.3667 22.3949 40.6042 22.4541 40.8383 22.5258C41.0725 22.5966 41.3033 22.6791 41.53 22.7733C41.7558 22.8666 41.9775 22.9716 42.1933 23.0874C42.4092 23.2024 42.6192 23.3291 42.8233 23.4649C43.0267 23.6016 43.2233 23.7474 43.4125 23.9024C43.6025 24.0583 43.7833 24.2224 43.9567 24.3966C44.13 24.5699 44.2942 24.7508 44.45 24.9408C44.605 25.1299 44.7508 25.3274 44.8875 25.5308C45.0233 25.7349 45.1492 25.9449 45.2642 26.1616C45.38 26.3774 45.485 26.5991 45.5783 26.8258C45.6725 27.0524 45.755 27.2824 45.8258 27.5174C45.8967 27.7524 45.9567 27.9899 46.0042 28.2299C46.0517 28.4708 46.0875 28.7133 46.1117 28.9574C46.1358 29.2016 46.1483 29.4458 46.1483 29.6908C46.1483 29.9366 46.1358 30.1808 46.1117 30.4249C46.0875 30.6691 46.0517 30.9116 46.0042 31.1516C45.9567 31.3924 45.8967 31.6299 45.8258 31.8649C45.755 32.0991 45.6725 32.3299 45.5783 32.5566C45.485 32.7833 45.38 33.0049 45.2642 33.2208C45.1492 33.4374 45.0233 33.6474 44.8875 33.8516C44.7508 34.0549 44.605 34.2516 44.45 34.4416C44.2942 34.6308 44.13 34.8124 43.9567 34.9858C43.7833 35.1591 43.6025 35.3241 43.4125 35.4799C43.2233 35.6349 43.0267 35.7808 42.8233 35.9174C42.6192 36.0533 42.4092 36.1791 42.1933 36.2949C41.9775 36.4108 41.7558 36.5158 41.53 36.6091C41.3033 36.7033 41.0725 36.7858 40.8383 36.8566C40.6042 36.9283 40.3667 36.9874 40.1258 37.0358C39.8858 37.0833 39.6442 37.1191 39.4 37.1433C39.1558 37.1674 38.9117 37.1791 38.6667 37.1791Z" fill="white"/>
<g id="Clip path group_2">
<mask id="mask1_114_255" style="mask-type:luminance" maskUnits="userSpaceOnUse" x="20" y="12" width="40" height="56">
<g id="730122e495">
<path id="Vector_5" d="M20.2667 12.0941H59.7333V67.9341H20.2667V12.0941Z" fill="white"/>
</g>
</mask>
<g mask="url(#mask1_114_255)">
<g id="Group_2">
<path id="Vector_6" d="M59.5075 66.5117L49.4075 42.9775C49.505 42.9817 49.6033 42.9808 49.7008 42.9733C49.7983 42.9658 49.895 42.9525 49.9908 42.9333C50.0867 42.9133 50.1808 42.8883 50.2742 42.8567C50.3667 42.8258 50.4567 42.7892 50.545 42.7467C50.6333 42.7042 50.7183 42.6567 50.8008 42.6033C50.8833 42.5508 50.9617 42.4925 51.0367 42.43C51.1117 42.3667 51.1833 42.3 51.25 42.2283C51.3167 42.1567 51.3783 42.0808 51.4358 42.0017C51.4933 41.9225 51.545 41.8392 51.5925 41.7533C51.6392 41.6675 51.6808 41.5792 51.7175 41.4883C51.7533 41.3975 51.7833 41.3042 51.8083 41.2092C51.8325 41.115 51.8517 41.0192 51.8642 40.9217C51.8767 40.8242 51.8833 40.7267 51.8842 40.6292C51.8842 40.5308 51.8792 40.4333 51.8675 40.3367C51.8558 40.2392 51.8383 40.1425 51.815 40.0475C51.7908 39.9525 51.7617 39.8592 51.7267 39.7683C51.6842 39.6858 51.6842 39.6042 51.7267 39.5217C52.1158 38.9833 52.4725 38.4233 52.7958 37.8425C52.835 37.755 52.9025 37.7083 52.9983 37.7033C53.2275 37.6942 53.4508 37.6517 53.6675 37.5767C53.8842 37.5025 54.0858 37.3983 54.2725 37.265C54.4592 37.1308 54.6225 36.9742 54.7633 36.7925C54.9042 36.6117 55.0158 36.4142 55.0992 36.2C55.1825 35.9867 55.2342 35.765 55.2525 35.5367C55.2717 35.3075 55.2575 35.0808 55.2108 34.8567C55.1633 34.6317 55.0858 34.4192 54.9767 34.2167C54.8675 34.015 54.7317 33.8333 54.57 33.6708C54.515 33.6225 54.49 33.5617 54.495 33.4883C54.6017 33.0283 54.6983 32.5692 54.7625 32.0875C54.7833 32.0183 54.8258 31.9692 54.89 31.9375C55.1008 31.8458 55.2933 31.725 55.4692 31.5767C55.6442 31.4283 55.795 31.2583 55.9208 31.0658C56.0467 30.8733 56.1425 30.6667 56.2075 30.4467C56.2733 30.2267 56.3067 30.0017 56.3067 29.7717C56.3067 29.5417 56.2733 29.3167 56.2075 29.0958C56.1425 28.8758 56.0467 28.6692 55.9208 28.4775C55.795 28.285 55.6442 28.1142 55.4692 27.9658C55.2933 27.8175 55.1008 27.6975 54.89 27.605C54.805 27.5642 54.7583 27.4967 54.7517 27.4017C54.6517 26.7383 54.5167 26.0825 54.345 25.4333C54.2967 25.355 54.2967 25.2767 54.345 25.1983C54.4992 25.0283 54.6258 24.8392 54.7258 24.6325C54.825 24.425 54.8933 24.2083 54.9308 23.9817C54.9675 23.755 54.9717 23.5275 54.9433 23.2992C54.9142 23.0717 54.8542 22.8525 54.7617 22.6417C54.6717 22.4325 54.5533 22.2408 54.4075 22.0667C54.2608 21.8925 54.0933 21.7425 53.9033 21.6167C53.7133 21.4917 53.51 21.3958 53.2925 21.33C53.0742 21.2642 52.8517 21.2308 52.6242 21.23C52.5475 21.2358 52.4875 21.2067 52.4425 21.1442C52.1867 20.7375 51.9192 20.3525 51.6417 19.9675C51.6067 19.9033 51.6067 19.8392 51.6417 19.775C51.725 19.5617 51.7767 19.34 51.7958 19.1117C51.8142 18.8833 51.8 18.6567 51.7525 18.4325C51.705 18.2075 51.6267 17.995 51.5167 17.7933C51.4067 17.5925 51.27 17.4117 51.1067 17.25C50.945 17.0867 50.7633 16.95 50.5617 16.8392C50.36 16.7283 50.1467 16.6492 49.9217 16.6008C49.6967 16.5525 49.4692 16.5367 49.24 16.555C49.0108 16.5725 48.7892 16.6225 48.5742 16.705C48.4917 16.7475 48.41 16.7475 48.3283 16.705C47.7933 16.31 47.2342 15.9533 46.65 15.635C46.5733 15.5833 46.5267 15.5125 46.5117 15.4208C46.5017 15.1917 46.4592 14.9683 46.385 14.7517C46.31 14.5342 46.2067 14.3325 46.0733 14.1458C45.9392 13.9592 45.7825 13.7958 45.6017 13.655C45.4208 13.5142 45.2233 13.4017 45.0092 13.3183C44.7958 13.235 44.575 13.1842 44.3467 13.165C44.1175 13.1458 43.8917 13.16 43.6667 13.2067C43.4425 13.2542 43.23 13.3325 43.0283 13.4417C42.8258 13.5508 42.6442 13.6867 42.4825 13.8483C42.43 13.905 42.3658 13.93 42.29 13.9233C41.83 13.8167 41.3708 13.72 40.9 13.6558C40.83 13.6375 40.78 13.595 40.7508 13.5275C40.66 13.3192 40.5408 13.1275 40.395 12.9533C40.2483 12.78 40.0808 12.63 39.8908 12.505C39.7008 12.3792 39.4975 12.2833 39.28 12.2175C39.0625 12.1508 38.8408 12.1175 38.6133 12.1158C38.3858 12.1175 38.1642 12.1525 37.9467 12.2192C37.73 12.285 37.5258 12.3808 37.3367 12.5067C37.1475 12.6317 36.9792 12.7808 36.8325 12.955C36.6858 13.1283 36.5675 13.3192 36.4758 13.5275C36.4758 13.6025 36.3692 13.645 36.2725 13.6667C35.6133 13.765 34.9608 13.9008 34.3167 14.0733C34.235 14.1208 34.1533 14.1208 34.0708 14.0733C33.9017 13.9192 33.7133 13.7925 33.5067 13.6933C33.3008 13.5942 33.085 13.5258 32.8583 13.4892C32.6325 13.4525 32.4058 13.4492 32.1792 13.4775C31.9517 13.5067 31.7333 13.5675 31.5242 13.6592C31.3142 13.7517 31.1225 13.8717 30.9475 14.0192C30.7725 14.1675 30.6225 14.3367 30.4967 14.5283C30.3708 14.72 30.2742 14.925 30.2083 15.1442C30.1417 15.3633 30.1075 15.5875 30.1058 15.8167C30.1117 15.8933 30.0833 15.9542 30.0208 15.9983C29.6142 16.255 29.2292 16.5225 28.8558 16.8008C28.7875 16.835 28.72 16.835 28.6525 16.8008C28.4383 16.72 28.2175 16.6708 27.9892 16.6533C27.7608 16.6358 27.535 16.6517 27.3117 16.7C27.0875 16.7483 26.875 16.8275 26.6742 16.9375C26.4733 17.0467 26.2925 17.1833 26.1308 17.345C25.9692 17.5075 25.8342 17.6892 25.725 17.8908C25.6158 18.0925 25.5375 18.305 25.49 18.5292C25.4433 18.7533 25.4283 18.9792 25.4458 19.2075C25.4642 19.4358 25.5142 19.6575 25.5958 19.8708C25.62 19.9625 25.6017 20.0442 25.5425 20.1175C25.1492 20.6533 24.7925 21.2133 24.4733 21.7967C24.425 21.8708 24.3575 21.9175 24.2708 21.9358C24.0417 21.945 23.8183 21.9875 23.6017 22.0625C23.385 22.1367 23.1833 22.2408 22.9967 22.3742C22.81 22.5075 22.6467 22.665 22.5058 22.8467C22.365 23.0275 22.2533 23.225 22.17 23.4392C22.0867 23.6525 22.0358 23.8742 22.0167 24.1025C21.9975 24.3317 22.0117 24.5575 22.0583 24.7825C22.1058 25.0075 22.1842 25.22 22.2925 25.4225C22.4017 25.6242 22.5375 25.8058 22.6992 25.9683C22.7533 26.0217 22.775 26.0858 22.7633 26.1608C22.6567 26.6208 22.5708 27.0808 22.4967 27.5517C22.4858 27.6292 22.4433 27.6792 22.3683 27.7017C22.16 27.7967 21.9692 27.9183 21.7958 28.0683C21.6233 28.2183 21.475 28.3892 21.3508 28.5817C21.2267 28.7742 21.1325 28.98 21.0683 29.2C21.0033 29.42 20.9717 29.6442 20.9717 29.8733C20.9717 30.1017 21.0033 30.3267 21.0683 30.5458C21.1325 30.7658 21.2267 30.9717 21.3508 31.1642C21.475 31.3567 21.6233 31.5283 21.7958 31.6775C21.9692 31.8275 22.16 31.95 22.3683 32.045C22.4092 32.0617 22.4425 32.0883 22.4683 32.1258C22.4933 32.1625 22.5058 32.2033 22.5075 32.2475C22.5967 32.8658 22.725 33.4758 22.8917 34.0775C22.9325 34.1592 22.9325 34.2408 22.8917 34.3233C22.7358 34.4925 22.6075 34.68 22.5058 34.8867C22.405 35.0933 22.335 35.31 22.2967 35.5367C22.2592 35.7642 22.2542 35.9917 22.2825 36.22C22.3108 36.4483 22.3717 36.6683 22.4642 36.8783C22.5567 37.0892 22.6775 37.2825 22.8258 37.4575C22.975 37.6333 23.1458 37.7842 23.3383 37.9092C23.5308 38.035 23.7375 38.13 23.9583 38.195C24.1792 38.26 24.4042 38.2925 24.6342 38.2917C24.7075 38.2875 24.7642 38.3158 24.805 38.3775C25.0617 38.7733 25.3283 39.1692 25.6067 39.5433C25.6408 39.6108 25.6408 39.6792 25.6067 39.7467C25.5717 39.8392 25.5425 39.9342 25.5192 40.03C25.4958 40.1267 25.4792 40.2242 25.4675 40.3225C25.4567 40.4217 25.4517 40.52 25.4533 40.6192C25.455 40.7183 25.4625 40.8175 25.4758 40.915C25.49 41.0133 25.5092 41.1108 25.535 41.2067C25.5608 41.3017 25.5925 41.3958 25.63 41.4875C25.6683 41.5792 25.7108 41.6683 25.76 41.755C25.8083 41.8408 25.8625 41.9242 25.9217 42.0033C25.9808 42.0833 26.0442 42.1583 26.1133 42.23C26.1817 42.3017 26.2542 42.3692 26.3317 42.4317C26.4083 42.4933 26.4892 42.5508 26.5725 42.6033C26.6567 42.6558 26.7442 42.7025 26.8342 42.7442C26.9242 42.7858 27.0167 42.8217 27.1108 42.8508C27.205 42.8808 27.3008 42.905 27.3983 42.9225C27.4958 42.9408 27.5942 42.9525 27.6933 42.9575C27.7925 42.9633 27.8908 42.9625 27.99 42.9558L20.5083 61.2158C20.4408 61.3825 20.4167 61.5542 20.4358 61.7325C20.455 61.9108 20.515 62.0733 20.6158 62.2217C20.715 62.3692 20.8433 62.4842 21 62.5675C21.1575 62.6508 21.325 62.6925 21.5025 62.6925H33.3767C33.4858 62.6925 33.5933 62.6758 33.6983 62.6425C33.8025 62.6092 33.9 62.5617 33.99 62.4983C34.08 62.435 34.1583 62.36 34.225 62.2725C34.2917 62.185 34.3433 62.09 34.3808 61.9867L38.72 50.0483L45.6133 67.3242C45.6533 67.4242 45.7067 67.515 45.7733 67.5992C45.8408 67.6825 45.9183 67.7542 46.0067 67.8142C46.0958 67.8742 46.1908 67.92 46.2933 67.9517C46.3958 67.9825 46.5008 67.9983 46.6075 67.9983H58.5242C58.6133 67.9983 58.7008 67.9883 58.7867 67.9667C58.8733 67.945 58.955 67.9133 59.0333 67.8708C59.1117 67.8292 59.1842 67.7775 59.2492 67.7175C59.315 67.6575 59.3725 67.59 59.4208 67.5158C59.47 67.4417 59.5083 67.3625 59.5375 67.2783C59.5667 67.1942 59.585 67.1083 59.5925 67.0192C59.6 66.9308 59.5967 66.8425 59.5825 66.755C59.5675 66.6667 59.5425 66.5825 59.5075 66.5008V66.5117ZM32.6283 60.5633H23.0092L30.0525 43.5975C30.2342 43.715 30.405 43.8433 30.5975 43.9508C30.6808 43.9933 30.7275 44.0608 30.7367 44.1542C30.7475 44.3833 30.7908 44.6058 30.8667 44.8225C30.9425 45.0392 31.0467 45.2408 31.1808 45.4275C31.315 45.6133 31.4725 45.7767 31.6542 45.9175C31.835 46.0575 32.0325 46.17 32.2467 46.2525C32.46 46.3358 32.6817 46.3875 32.91 46.4058C33.1383 46.425 33.365 46.4117 33.5892 46.365C33.8142 46.3183 34.0267 46.24 34.2292 46.1317C34.4308 46.0233 34.6133 45.8883 34.7767 45.7267C34.8258 45.6742 34.8867 45.6533 34.9583 45.6625C35.4175 45.7692 35.8775 45.855 36.3583 45.93C36.4333 45.9425 36.4833 45.9858 36.5075 46.0583C36.6108 46.2858 36.7475 46.4908 36.9175 46.6742C37.0875 46.8567 37.2825 47.0083 37.5017 47.1275L32.6283 60.5633ZM38.9233 45.1383C38.9233 45.1383 38.9233 45.1383 38.9233 45.1917C38.9042 45.2333 38.875 45.2667 38.8367 45.2917C38.7975 45.3167 38.755 45.3292 38.7092 45.3292C38.6633 45.3292 38.6208 45.3167 38.5825 45.2917C38.5433 45.2667 38.515 45.2333 38.4958 45.1917C38.4183 45.0092 38.3192 44.8392 38.1975 44.6817C38.0758 44.525 37.9367 44.3858 37.7792 44.265C37.6225 44.1442 37.4517 44.045 37.2692 43.9683C37.0858 43.8917 36.8967 43.8392 36.7 43.8117C36.2942 43.7475 35.8875 43.6725 35.4925 43.5767C35.3142 43.5608 35.1358 43.5608 34.9583 43.5767C34.6492 43.5767 34.3525 43.6358 34.0675 43.755C33.7817 43.8733 33.53 44.0425 33.3125 44.2608C33.2758 44.2883 33.235 44.3025 33.1892 44.3025C33.1433 44.3025 33.1025 44.2883 33.0667 44.2608C33.02 44.2467 32.9833 44.2192 32.955 44.1792C32.9275 44.14 32.9142 44.0958 32.9167 44.0467C32.905 43.8458 32.8683 43.6492 32.8067 43.4575C32.7458 43.2658 32.6625 43.0842 32.5558 42.9133C32.4492 42.7425 32.3233 42.5875 32.1783 42.4475C32.0333 42.3083 31.8733 42.1892 31.6983 42.0892C31.1875 41.8067 30.7 41.4892 30.2342 41.1375C30.0725 41.0158 29.8992 40.9167 29.7125 40.8392C29.5258 40.7617 29.3325 40.7092 29.1317 40.6808C28.9317 40.6533 28.7317 40.65 28.5308 40.6733C28.33 40.6958 28.1358 40.7442 27.9467 40.8167C27.865 40.8667 27.7833 40.8667 27.7017 40.8167C27.6692 40.7842 27.6483 40.7458 27.6392 40.7008C27.6292 40.6567 27.6325 40.6133 27.6475 40.57C27.7217 40.3858 27.77 40.195 27.795 39.9983C27.8192 39.8017 27.8183 39.605 27.7925 39.4075C27.7658 39.2108 27.715 39.0208 27.64 38.8375C27.565 38.6533 27.4675 38.4825 27.3483 38.3242C27.1025 37.9925 26.8783 37.65 26.6542 37.2542C26.5475 37.0875 26.4225 36.9367 26.2775 36.8017C26.1325 36.6675 25.9733 36.5533 25.7992 36.46C25.6258 36.3658 25.4425 36.2958 25.25 36.2492C25.0583 36.2025 24.8633 36.1808 24.6658 36.1842C24.6208 36.185 24.58 36.1725 24.5425 36.1475C24.505 36.1217 24.4783 36.0875 24.4633 36.045C24.4358 36.0067 24.4225 35.9642 24.4225 35.9167C24.4225 35.87 24.4358 35.8275 24.4633 35.7883C24.5992 35.64 24.7142 35.4758 24.8083 35.2975C24.9025 35.1183 24.9725 34.9308 25.0183 34.7342C25.0642 34.5375 25.085 34.3383 25.0792 34.1358C25.0742 33.9342 25.0433 33.7358 24.9867 33.5425C24.8358 32.9825 24.7183 32.415 24.6342 31.8417C24.6075 31.6408 24.555 31.4458 24.4783 31.2583C24.4017 31.0708 24.3025 30.8958 24.1808 30.7342C24.0592 30.5725 23.9192 30.4283 23.7608 30.3025C23.6017 30.1758 23.43 30.0725 23.2442 29.9908C23.1617 29.9433 23.12 29.8725 23.12 29.7767C23.12 29.6817 23.1617 29.61 23.2442 29.5625C23.4258 29.4833 23.5942 29.3825 23.75 29.26C23.9058 29.1383 24.0433 28.9983 24.1642 28.8408C24.285 28.6842 24.3842 28.5142 24.4617 28.3325C24.5392 28.15 24.5933 27.9617 24.6233 27.7658C24.6875 27.3483 24.7625 26.9525 24.8583 26.5458C24.8992 26.3558 24.915 26.1633 24.9075 25.9683C24.9 25.7742 24.8692 25.5833 24.8142 25.3967C24.7592 25.21 24.6817 25.0325 24.5825 24.865C24.4833 24.6975 24.365 24.545 24.2275 24.4067C24.1983 24.3708 24.1833 24.33 24.1833 24.2833C24.1833 24.2375 24.1983 24.1967 24.2275 24.1608C24.2433 24.1183 24.27 24.0842 24.3075 24.0592C24.345 24.0333 24.3858 24.0208 24.4308 24.0217C24.6333 24.01 24.8308 23.9742 25.0242 23.9125C25.2175 23.8517 25.4 23.7667 25.5717 23.6592C25.7442 23.5517 25.9 23.425 26.0392 23.2775C26.1792 23.1308 26.2983 22.9683 26.3975 22.7917C26.6858 22.2875 27.0033 21.8025 27.3483 21.3367C27.47 21.175 27.5692 21.0008 27.6467 20.8142C27.7242 20.6275 27.7767 20.4333 27.8042 20.2333C27.8325 20.0333 27.835 19.8325 27.8125 19.6317C27.7892 19.4308 27.7417 19.2358 27.6692 19.0475C27.6525 19.005 27.6483 18.9608 27.6583 18.9158C27.6683 18.8717 27.6892 18.8333 27.7225 18.8017C27.7592 18.775 27.8008 18.7625 27.8458 18.7625C27.8908 18.7625 27.9317 18.775 27.9683 18.8017C28.1533 18.8717 28.3433 18.9183 28.54 18.9417C28.7367 18.9642 28.9325 18.9633 29.1283 18.9367C29.325 18.9108 29.5142 18.8608 29.6975 18.7875C29.8817 18.7133 30.0533 18.6183 30.2125 18.5017C30.5442 18.2558 30.8858 18.02 31.2817 17.8067C31.4483 17.7 31.5983 17.5742 31.7325 17.4292C31.8667 17.2842 31.9808 17.125 32.0742 16.9508C32.1675 16.7767 32.2375 16.5933 32.2842 16.4017C32.3317 16.2092 32.3533 16.0142 32.35 15.8167C32.3508 15.7708 32.3633 15.7283 32.3883 15.6892C32.4133 15.6508 32.4475 15.6217 32.4892 15.6025C32.5267 15.5783 32.5675 15.5658 32.6125 15.5658C32.6567 15.5658 32.6975 15.5783 32.735 15.6025C32.885 15.7392 33.05 15.8542 33.2292 15.9492C33.4083 16.0433 33.5967 16.1133 33.7942 16.1592C33.9917 16.205 34.1917 16.225 34.3942 16.22C34.5967 16.2142 34.7958 16.1833 34.99 16.1267C35.5492 15.9725 36.115 15.855 36.6892 15.7742C36.8842 15.7375 37.0717 15.6775 37.2517 15.5942C37.4317 15.5108 37.5992 15.4058 37.7525 15.2808C37.9067 15.1558 38.0433 15.0142 38.1617 14.8542C38.28 14.695 38.3775 14.5242 38.4533 14.3408C38.4533 14.3092 38.4592 14.2792 38.4708 14.2508C38.4825 14.2217 38.5 14.1958 38.5217 14.1742C38.5442 14.1517 38.5692 14.135 38.5983 14.1233C38.6267 14.1108 38.6567 14.105 38.6883 14.105C38.7192 14.105 38.7492 14.1108 38.7783 14.1233C38.8067 14.135 38.8325 14.1517 38.8542 14.1742C38.8767 14.1958 38.8933 14.2217 38.905 14.2508C38.9175 14.2792 38.9233 14.3092 38.9233 14.3408C39.0025 14.5225 39.1025 14.6908 39.225 14.8475C39.3467 15.0033 39.4858 15.1417 39.6433 15.2625C39.8 15.3825 39.97 15.4817 40.1517 15.56C40.3342 15.6375 40.5233 15.6908 40.7183 15.7208C41.1358 15.785 41.5308 15.8592 41.9367 15.945C42.1275 15.985 42.32 16.0008 42.5142 15.9933C42.7083 15.9858 42.8983 15.9542 43.085 15.8992C43.2717 15.8442 43.4492 15.7667 43.6158 15.6683C43.7833 15.5692 43.9367 15.4508 44.0742 15.3142C44.1108 15.2867 44.1517 15.2725 44.1975 15.2725C44.2433 15.2725 44.2842 15.2867 44.32 15.3142C44.3633 15.3283 44.3983 15.3542 44.4242 15.3925C44.45 15.43 44.4617 15.4717 44.4592 15.5175C44.4708 15.7192 44.5067 15.9167 44.5675 16.1092C44.6292 16.3017 44.7133 16.4842 44.8208 16.655C44.9283 16.8267 45.0558 16.9817 45.2025 17.12C45.3492 17.2592 45.5117 17.3775 45.6883 17.475C46.1917 17.7633 46.6758 18.0808 47.1417 18.4267C47.3025 18.5492 47.4767 18.65 47.6625 18.7275C47.8492 18.8058 48.0425 18.86 48.2425 18.8883C48.4425 18.9175 48.6433 18.9208 48.8442 18.8992C49.045 18.8775 49.24 18.83 49.4292 18.7583C49.4717 18.7433 49.515 18.7417 49.5583 18.7517C49.6025 18.7617 49.6408 18.7825 49.6725 18.8142C49.7042 18.8467 49.725 18.8842 49.735 18.9283C49.745 18.9725 49.7433 19.0158 49.7283 19.0583C49.6558 19.2425 49.6083 19.4333 49.585 19.63C49.5608 19.8267 49.5625 20.0233 49.5883 20.22C49.615 20.4167 49.665 20.6067 49.7392 20.79C49.8133 20.9742 49.91 21.145 50.0275 21.3042C50.2733 21.6358 50.5083 21.9783 50.7225 22.3742C50.8292 22.54 50.955 22.6908 51.1 22.825C51.245 22.9583 51.4042 23.0725 51.5783 23.1658C51.7517 23.26 51.935 23.33 52.1267 23.3767C52.3183 23.4242 52.5125 23.4467 52.71 23.4442C52.7575 23.4408 52.8008 23.4525 52.84 23.4783C52.8792 23.5042 52.9075 23.5392 52.9242 23.5833C52.9742 23.665 52.9742 23.7467 52.9242 23.8292C52.7875 23.9792 52.6725 24.1442 52.5783 24.3233C52.4842 24.5033 52.4142 24.6917 52.3683 24.8892C52.3225 25.0867 52.3025 25.2867 52.3075 25.49C52.3133 25.6925 52.3442 25.8917 52.4 26.0858C52.5492 26.6467 52.6675 27.2133 52.7525 27.7867C52.7817 27.9875 52.835 28.1808 52.9125 28.3675C52.99 28.5542 53.0892 28.7292 53.2108 28.8908C53.3317 29.0525 53.4717 29.1967 53.6292 29.3225C53.7875 29.4492 53.9583 29.5542 54.1425 29.6375C54.1842 29.6567 54.2175 29.6858 54.2425 29.7242C54.2667 29.7633 54.2792 29.8058 54.2792 29.8517C54.2792 29.8975 54.2667 29.94 54.2425 29.9783C54.2175 30.0175 54.1842 30.0467 54.1425 30.0658C53.9608 30.145 53.7917 30.245 53.6358 30.3675C53.48 30.4892 53.3417 30.6292 53.2217 30.7858C53.1008 30.9433 53.0017 31.1133 52.9242 31.295C52.8467 31.4775 52.7933 31.6667 52.7633 31.8625C52.6992 32.2692 52.625 32.6758 52.5392 33.0717C52.4975 33.2617 52.48 33.455 52.4867 33.6492C52.4933 33.8442 52.5242 34.0358 52.5792 34.2225C52.6342 34.4092 52.7117 34.5867 52.8117 34.7542C52.9117 34.9217 53.0308 35.0742 53.17 35.2108C53.1958 35.2475 53.2083 35.2892 53.2083 35.3342C53.2083 35.3792 53.1958 35.42 53.17 35.4567C53.1592 35.5042 53.135 35.5417 53.0958 35.57C53.0575 35.5983 53.0142 35.6108 52.9667 35.6067C52.7667 35.6158 52.57 35.65 52.3783 35.7083C52.1867 35.7675 52.0058 35.8492 51.8342 35.9533C51.6633 36.0583 51.5083 36.1825 51.3683 36.3267C51.2292 36.4708 51.11 36.6308 51.0108 36.805C50.725 37.3133 50.4075 37.8025 50.0592 38.2708C49.9375 38.4317 49.8367 38.605 49.7592 38.7917C49.6808 38.9783 49.6275 39.1717 49.5983 39.3725C49.5692 39.5725 49.5658 39.7733 49.5875 39.9742C49.61 40.175 49.6567 40.3708 49.7283 40.56C49.7542 40.5967 49.7675 40.6375 49.7675 40.6825C49.7675 40.7275 49.7542 40.7692 49.7283 40.8058C49.6467 40.8558 49.5642 40.8558 49.4825 40.8058C49.15 40.68 48.8067 40.6325 48.4533 40.6625C48.0992 40.6925 47.7692 40.7967 47.4625 40.9767C47.3925 41.0017 47.3283 41.0375 47.27 41.0842C46.9392 41.33 46.5967 41.5542 46.255 41.7792C46.0883 41.885 45.9375 42.0108 45.8033 42.1558C45.6683 42.3008 45.5542 42.46 45.4608 42.6342C45.3675 42.8083 45.2975 42.9917 45.2508 43.1842C45.2042 43.3758 45.1825 43.5708 45.1858 43.7692C45.19 43.815 45.1792 43.8575 45.1533 43.8958C45.1275 43.9342 45.0917 43.9592 45.0475 43.9725C45.0108 44 44.97 44.0133 44.9242 44.0133C44.8783 44.0133 44.8375 44 44.8017 43.9725C44.65 43.8375 44.485 43.7242 44.305 43.6308C44.1258 43.5383 43.9367 43.47 43.74 43.425C43.5425 43.38 43.3433 43.36 43.1408 43.3658C42.9392 43.3717 42.7408 43.4025 42.5458 43.4583C41.9867 43.6083 41.42 43.7258 40.8467 43.8117C40.6433 43.83 40.445 43.8742 40.2525 43.9442C40.0608 44.0133 39.88 44.1067 39.7117 44.2225C39.5433 44.3392 39.3917 44.4742 39.2583 44.63C39.125 44.785 39.0133 44.9542 38.9233 45.1383ZM47.3558 65.8692L39.8742 47.1383C40.3075 46.8833 40.6283 46.5267 40.8358 46.0692C40.8775 45.9833 40.945 45.9367 41.0392 45.93C41.7 45.8325 42.3525 45.6933 42.995 45.5125C43.0767 45.4717 43.1592 45.4717 43.2408 45.5125C43.4108 45.6667 43.5983 45.7925 43.805 45.8925C44.0108 45.9917 44.2275 46.0592 44.4533 46.0958C44.6792 46.1333 44.9058 46.1367 45.1325 46.1083C45.36 46.0792 45.5783 46.0183 45.7875 45.9267C45.9975 45.8342 46.19 45.7142 46.3642 45.5667C46.5392 45.4183 46.69 45.2492 46.8158 45.0575C46.9417 44.8658 47.0375 44.6608 47.1042 44.4417C47.17 44.2225 47.2042 43.9983 47.2058 43.7692C47.2017 43.6958 47.23 43.6383 47.2917 43.5975H47.3558L56.91 65.88L47.3558 65.8692Z" fill="white"/>
</g>
</g>
</g>
</g>
<defs>
<clipPath id="clip0_114_255">
<rect width="80" height="80" fill="white"/>
</clipPath>
</defs>
</svg>
