<svg width="80" height="80" viewBox="0 0 80 80" fill="none" xmlns="http://www.w3.org/2000/svg">
<g id="4 46" clip-path="url(#clip0_114_268)">
<g id="Clip path group">
<mask id="mask0_114_268" style="mask-type:luminance" maskUnits="userSpaceOnUse" x="0" y="0" width="80" height="80">
<g id="18081307e3">
<path id="Vector" d="M16 0H64C72.8367 0 80 7.16333 80 16V64C80 72.8367 72.8367 80 64 80H16C7.16333 80 0 72.8367 0 64V16C0 7.16333 7.16333 0 16 0Z" fill="white"/>
</g>
</mask>
<g mask="url(#mask0_114_268)">
<g id="Group">
<path id="Vector_2" d="M0 0H79.875V79.875H0V0Z" fill="#007EC5"/>
</g>
</g>
</g>
<path id="Vector_3" d="M48.34 58.9067C48.34 59.7608 47.6784 60.4216 46.8284 60.4216H35.1833C34.3342 60.4216 33.6667 59.7608 33.6667 58.9067C33.6667 58.0583 34.3342 57.3975 35.1833 57.3975H46.8284C47.6784 57.3975 48.34 58.0583 48.34 58.9067ZM46.1667 63.9175C46.1667 64.7716 45.5 65.4325 44.65 65.4325H37.3617C36.5067 65.4325 35.845 64.7716 35.845 63.9175C35.845 63.0691 36.5067 62.4083 37.3617 62.4083H44.65C45.5 62.4083 46.1667 63.0691 46.1667 63.9175ZM43.4183 67.4142C43.4183 68.7408 42.2833 69.8733 40.96 69.8733C39.6317 69.8733 38.4967 68.7408 38.4967 67.4142V67.3225H43.4183V67.4142ZM29.5042 44.2558C20.7958 34.5241 27.7075 19.4916 40.105 18.9283C53.5467 18.2675 60.9317 34.1433 52.2234 44.1642C49.3834 47.4725 47.6784 51.5383 47.5867 55.6041H33.9517C33.855 51.3508 32.3433 47.3816 29.5042 44.2608V44.2558ZM53.6434 45.3941C63.4917 34.0516 55.0634 16.28 40.0133 17.0375C25.8142 17.6983 18.5208 34.8033 28.0842 45.4858C32.6292 50.4967 32.0583 56.1675 32.0583 56.4525C32.0583 56.6408 32.1558 56.8283 32.2467 56.925C31.87 57.3975 31.6825 58.2467 31.6825 58.9067C31.6825 60.4216 32.72 61.9358 34.14 62.215C33.9517 62.5966 33.8608 63.3541 33.8608 63.8266C33.8608 65.4325 35.0867 66.9417 36.6033 67.2258V67.4142C36.6033 69.7766 38.5933 71.7641 40.96 71.7641C43.3267 71.7641 45.3117 69.7766 45.3117 67.4142V67.2258C46.8284 67.0383 48.06 65.4325 48.06 63.8266C48.06 63.3541 47.9634 62.5966 47.775 62.215C49.195 61.9358 50.2383 60.4216 50.2383 58.9067C50.2383 58.155 49.9534 57.2042 49.48 56.6408C49.48 56.5442 49.5717 56.4525 49.5717 56.3558C49.5717 56.1675 49.0067 50.6842 53.6434 45.3941Z" fill="white"/>
<path id="Vector_4" d="M31.9675 37.5484C32.5317 36.8875 33.29 36.7909 33.8608 37.1667C34.3342 37.4517 34.8983 37.355 35.1833 36.8875C35.4683 36.4092 35.3717 35.8459 34.8983 35.5609C33.6667 34.7125 32.1558 34.9 31.1117 35.7492C30.165 34.9 30.2625 33.2942 31.585 32.6284C31.87 32.5375 32.0583 32.2525 32.1558 31.9675C32.2467 31.6834 32.1558 31.4042 31.9675 31.1192C31.1117 29.8892 31.87 28.38 33.1933 28.1867C34.14 29.605 35.845 30.2709 37.4592 29.605C37.9267 29.4167 38.2117 28.8475 38.0233 28.38C37.835 27.9025 37.265 27.6234 36.7917 27.8109C35.0867 28.4717 34.14 26.1084 35.56 25.26C36.13 24.8784 36.98 24.8784 37.6475 25.3517C37.835 25.5392 38.2117 25.5392 38.4967 25.5392C38.7817 25.4484 38.97 25.26 39.1583 24.975C39.3467 24.5942 39.6317 24.315 39.9167 24.1217V26.5809C39.4433 26.205 38.8733 26.2967 38.4967 26.7692C38.2117 27.2417 38.3083 27.8109 38.7817 28.0959C39.1583 28.38 39.54 28.4717 39.9167 28.5684V38.2084C39.3525 38.3967 38.8792 38.6809 38.4058 39.1542C37.7383 39.8142 37.4592 40.6684 37.4592 41.6134C37.4592 42.0809 37.9325 42.5584 38.4058 42.5584C38.97 42.5584 39.3525 42.0809 39.3525 41.6134C39.3525 41.2325 39.54 40.76 39.82 40.475L39.9167 40.3834V44.3525C39.6317 44.1642 39.3525 43.88 39.1583 43.5042C39.0667 43.2142 38.7817 43.0259 38.4967 42.935C38.2117 42.8434 37.9325 42.935 37.6475 43.1225C36.3183 44.0675 34.5217 43.0259 34.71 41.42C34.71 41.1359 34.6192 40.8567 34.425 40.6684C34.2367 40.475 33.9517 40.3834 33.6725 40.3834C32.0583 40.6684 31.0208 38.7775 31.9675 37.5484ZM42.5683 25.1634C42.66 25.4484 42.945 25.6359 43.23 25.7325C43.515 25.8242 43.8 25.7325 44.08 25.545C45.4083 24.5992 47.205 25.6359 47.0167 27.2417C47.0167 27.5267 47.1133 27.8109 47.3017 27.9992C47.49 28.1867 47.775 28.2834 48.06 28.2834C49.6683 28.0959 50.7117 29.7984 49.8567 31.1192C49.2917 31.5917 48.4367 31.5009 47.9633 30.9317C47.5867 30.5559 47.0167 30.5559 46.64 30.835C46.2583 31.2159 46.2583 31.78 46.5433 32.1609C47.5867 33.2942 49.195 33.5792 50.615 32.8217C51.6583 33.67 51.5617 35.3725 50.2383 35.9425C49.9533 36.0334 49.765 36.3184 49.6683 36.6025C49.5717 36.8875 49.6683 37.1667 49.8567 37.4517C50.7117 38.6809 49.9533 40.2867 48.4367 40.3834C47.3983 39.3417 45.6933 39.0625 44.365 40.0075C43.8917 40.2867 43.8 40.8567 44.085 41.3292C44.365 41.8017 44.935 41.8984 45.4083 41.6134C45.8817 41.3292 46.4517 41.2325 47.0167 41.8017C47.0167 43.3109 45.3117 44.1642 44.085 43.2192C43.8917 43.0317 43.515 43.0317 43.23 43.0317C42.945 43.1225 42.7567 43.3109 42.5683 43.595C42.38 43.9767 42.095 44.2559 41.81 44.4492V28.5684C42.38 28.2834 42.8533 27.9075 43.23 27.435C43.515 26.9575 43.4183 26.3934 42.945 26.1084C42.5683 25.8242 42.095 25.9209 41.81 26.205V24.315C42.095 24.5025 42.38 24.7875 42.5683 25.1634ZM37.9267 45.2009C39.4433 47 42.2833 47 43.8 45.2009C45.9733 46.055 48.4367 44.6375 48.8133 42.2742C51.18 41.8925 52.6 39.4384 51.75 37.2634C53.5467 35.7492 53.5467 32.9134 51.75 31.4042C52.605 29.2292 51.185 26.7742 48.8133 26.3934C48.4367 24.03 45.9733 22.6125 43.8 23.4609C42.2833 21.6667 39.4433 21.6667 37.9267 23.4609C35.7542 22.6125 33.29 24.03 32.9142 26.3934C30.5475 26.7742 29.1275 29.2292 29.9767 31.4042C28.175 32.9134 28.175 35.7492 29.9767 37.2634C29.6008 38.305 29.6917 39.4384 30.2625 40.475C30.8267 41.5167 31.7733 42.1775 32.9142 42.2742C33.1933 44.6375 35.7542 46.055 37.9267 45.2009Z" fill="white"/>
<path id="Vector_5" d="M42.4717 36.2217C42.095 36.6025 42.095 37.1667 42.38 37.5484C42.945 38.1117 43.7033 38.4934 44.4617 38.4934C45.1233 38.4934 45.785 38.305 46.2583 37.8325C46.64 37.4517 46.64 36.8875 46.355 36.5059C45.9783 36.13 45.4083 36.13 45.0317 36.415C44.8383 36.6025 44.65 36.6025 44.4617 36.6025C44.2733 36.6025 43.9883 36.5059 43.8917 36.3184C43.515 35.9425 42.8533 35.9425 42.4717 36.2217Z" fill="white"/>
<path id="Vector_6" d="M38.685 34.7125C39.0667 34.3366 39.0667 33.7666 38.7817 33.3908C38.4 33.01 37.835 33.01 37.4533 33.2941C37.1742 33.5791 36.7008 33.4825 36.5067 33.1975C36.13 32.8216 35.56 32.8216 35.1833 33.1066C34.8075 33.4825 34.8075 34.0516 35.0867 34.4275C35.56 34.9966 36.3183 35.2816 36.98 35.2816C37.55 35.3725 38.2117 35.185 38.685 34.7125Z" fill="white"/>
<path id="Vector_7" d="M40.675 16.3767C41.2458 16.3767 41.6217 15.9958 41.6217 15.4317V12.215C41.6217 11.6458 41.2458 11.2692 40.675 11.2692C40.105 11.2692 39.7283 11.6458 39.7283 12.215V15.4267C39.7283 15.8992 40.105 16.3767 40.675 16.3767Z" fill="white"/>
<path id="Vector_8" d="M28.9392 18.4558C29.2183 18.9283 29.7892 19.0192 30.2625 18.8317C30.7358 18.5467 30.8325 17.9825 30.6383 17.51L29.0308 14.7658C28.745 14.2933 28.1808 14.105 27.7075 14.39C27.2342 14.6742 27.1375 15.2383 27.325 15.7108L28.9392 18.4558Z" fill="white"/>
<path id="Vector_9" d="M22.1192 24.7875L19.3758 23.1816C18.9025 22.8966 18.3325 23.085 18.0475 23.5575C17.7675 24.03 17.9558 24.5991 18.4292 24.8841L21.1725 26.49C21.6458 26.7741 22.2158 26.5808 22.5008 26.1083C22.6892 25.6358 22.5925 25.0716 22.1192 24.7875Z" fill="white"/>
<g id="Clip path group_2">
<mask id="mask1_114_268" style="mask-type:luminance" maskUnits="userSpaceOnUse" x="14" y="35" width="6" height="3">
<g id="445d80f78d">
<path id="Vector_10" d="M14.3575 35.2H19.4133V37.3333H14.3575V35.2Z" fill="white"/>
</g>
</mask>
<g mask="url(#mask1_114_268)">
<g id="Group_2">
<path id="Vector_11" d="M19.3758 36.3183C19.3758 35.7491 18.9942 35.3724 18.4292 35.3724H15.3042C14.7392 35.3724 14.3575 35.7491 14.3575 36.3183C14.3575 36.8874 14.7392 37.2633 15.3042 37.2633H18.5208C18.9942 37.2633 19.3758 36.7908 19.3758 36.3183Z" fill="white"/>
</g>
</g>
</g>
<path id="Vector_12" d="M20.5108 46.34L17.7675 47.9458C17.2942 48.23 17.1975 48.7941 17.3858 49.2666C17.6708 49.7391 18.2408 49.8358 18.7142 49.6483L21.4575 48.0366C21.9308 47.7525 22.0275 47.1883 21.8342 46.7158C21.5542 46.2433 20.9842 46.055 20.5108 46.34Z" fill="white"/>
<path id="Vector_13" d="M61.5933 48.9817L58.85 47.3758C58.3767 47.0917 57.8117 47.285 57.5267 47.7525C57.2417 48.23 57.43 48.7942 57.9033 49.0783L60.6467 50.6842C61.12 50.9692 61.69 50.7808 61.975 50.3083C62.1633 49.8358 62.0667 49.2667 61.5933 48.9817Z" fill="white"/>
<g id="Clip path group_3">
<mask id="mask2_114_268" style="mask-type:luminance" maskUnits="userSpaceOnUse" x="60" y="36" width="6" height="3">
<g id="a0fc5327ba">
<path id="Vector_14" d="M60.3734 36.48H65.665V38.6133H60.3734V36.48Z" fill="white"/>
</g>
</mask>
<g mask="url(#mask2_114_268)">
<g id="Group_3">
<path id="Vector_15" d="M64.7184 36.6025H61.5017C60.9317 36.6025 60.555 36.9784 60.555 37.5484C60.555 38.1175 60.9317 38.4934 61.5017 38.4934H64.7184C65.2884 38.4934 65.665 38.1175 65.665 37.5484C65.665 36.9784 65.2884 36.6025 64.7184 36.6025Z" fill="white"/>
</g>
</g>
</g>
<path id="Vector_16" d="M59.5117 27.5267L62.26 25.9209C62.7333 25.6359 62.825 25.0717 62.6367 24.5992C62.3517 24.1267 61.7867 24.03 61.3133 24.2184L58.565 25.8292C58.0917 26.1084 58 26.6775 58.1883 27.1509C58.4733 27.6234 59.0383 27.8109 59.5117 27.5267Z" fill="white"/>
<path id="Vector_17" d="M50.9 19.4009C51.3733 19.6801 51.9383 19.4917 52.2233 19.0192L53.8317 16.2801C54.1167 15.8076 53.9283 15.2384 53.455 14.9542C52.9817 14.6692 52.4117 14.8626 52.1267 15.3351L50.5183 18.0742C50.2333 18.5467 50.4267 19.1159 50.9 19.4009Z" fill="white"/>
</g>
<defs>
<clipPath id="clip0_114_268">
<rect width="80" height="80" fill="white"/>
</clipPath>
</defs>
</svg>
